<svg width="33" height="22" viewBox="0 0 33 22" fill="none" xmlns="http://www.w3.org/2000/svg">
<path d="M32.8006 10.1635C29.6937 4.10151 23.5428 0 16.5 0C9.4571 0 3.30455 4.10438 0.199344 10.1641C0.0682843 10.4234 0 10.7098 0 11.0003C0 11.2908 0.0682843 11.5772 0.199344 11.8365C3.30627 17.8985 9.4571 22 16.5 22C23.5428 22 29.6954 17.8956 32.8006 11.8359C32.9317 11.5766 32.9999 11.2902 32.9999 10.9997C32.9999 10.7092 32.9317 10.4228 32.8006 10.1635ZM16.5 19.25C14.8683 19.25 13.2732 18.7661 11.9165 17.8596C10.5598 16.9531 9.50239 15.6646 8.87796 14.1571C8.25354 12.6496 8.09016 10.9908 8.40849 9.3905C8.72682 7.79016 9.51256 6.32015 10.6663 5.16637C11.8201 4.01259 13.2901 3.22685 14.8905 2.90852C16.4908 2.59019 18.1496 2.75357 19.6571 3.37799C21.1646 4.00242 22.4531 5.05984 23.3596 6.41655C24.2661 7.77325 24.75 9.3683 24.75 11C24.7505 12.0836 24.5375 13.1566 24.1231 14.1578C23.7086 15.1589 23.101 16.0686 22.3348 16.8348C21.5686 17.601 20.6589 18.2087 19.6577 18.6231C18.6566 19.0375 17.5835 19.2505 16.5 19.25ZM16.5 5.5C16.0091 5.50686 15.5213 5.5799 15.0499 5.71713C15.4385 6.24518 15.6249 6.89499 15.5755 7.54872C15.526 8.20245 15.2439 8.81681 14.7804 9.28039C14.3168 9.74397 13.7024 10.0261 13.0487 10.0755C12.395 10.125 11.7451 9.93851 11.2171 9.54995C10.9164 10.6577 10.9707 11.8319 11.3723 12.9072C11.7739 13.9826 12.5026 14.9049 13.4558 15.5444C14.4091 16.1838 15.5389 16.5083 16.6861 16.472C17.8334 16.4358 18.9405 16.0407 19.8515 15.3423C20.7624 14.6439 21.4315 13.6775 21.7644 12.579C22.0973 11.4804 22.0774 10.3052 21.7074 9.21856C21.3374 8.13196 20.6359 7.18875 19.7018 6.52169C18.7676 5.85463 17.6478 5.4973 16.5 5.5Z" fill="#23BA44"/>
</svg>
