<svg width="60" height="60" viewBox="0 0 60 60" fill="none" xmlns="http://www.w3.org/2000/svg">
<path d="M52.5 3.75H7.48828C5.42578 3.75 3.75 5.44922 3.75 7.53516V52.4648C3.75 54.5508 5.42578 56.25 7.48828 56.25H52.5C54.5625 56.25 56.25 54.5508 56.25 52.4648V7.53516C56.25 5.44922 54.5625 3.75 52.5 3.75ZM19.6172 48.75H11.8359V23.6953H19.6289V48.75H19.6172ZM15.7266 20.2734C13.2305 20.2734 11.2148 18.2461 11.2148 15.7617C11.2148 13.2773 13.2305 11.25 15.7266 11.25C18.2109 11.25 20.2383 13.2773 20.2383 15.7617C20.2383 18.2578 18.2227 20.2734 15.7266 20.2734ZM48.7852 48.75H41.0039V36.5625C41.0039 33.6562 40.9453 29.918 36.9609 29.918C32.9062 29.918 32.2852 33.082 32.2852 36.3516V48.75H24.5039V23.6953H31.9688V27.1172H32.0742C33.1172 25.1484 35.6602 23.0742 39.4453 23.0742C47.3203 23.0742 48.7852 28.2656 48.7852 35.0156V48.75Z" fill="#23BA44"/>
</svg>
